<svg width="50" height="50" viewBox="0 0 50 50" fill="White" xmlns="http://www.w3.org/2000/svg">
    <!--   icons-->

    <g id="code"> <!-- убрал fill="" из path, чтобы управлять цветом иконок через css */-->
        <path fill-rule="evenodd" clip-rule="evenodd"
              d="M18.3125 42.0645L27.2623 6.6875L31.4375 7.87241L22.4878 43.3125L18.3125 42.0645Z"/>
        <path fill-rule="evenodd" clip-rule="evenodd"
              d="M13.5025 12.6875L16.5625 15.9278L7.99501 25.0001L16.5625 34.0721L13.5025 37.3125L1.875 25.0001L13.5025 12.6875Z"/>
        <path fill-rule="evenodd" clip-rule="evenodd"
              d="M36.4976 12.6875L33.4375 15.9278L42.0051 25.0001L33.4375 34.0721L36.4976 37.3125L48.125 25.0001L36.4976 12.6875Z"/>
    </g>

    <g id="linkedin">
        <path d="M14.4 0C6.447 0 0 6.447 0 14.4C0 22.353 6.447 28.8 14.4 28.8C22.353 28.8 28.8 22.353 28.8 14.4C28.8 6.447 22.353 0 14.4 0ZM10.875 20.3685H7.959V10.9845H10.875V20.3685ZM9.399 9.8325C8.478 9.8325 7.8825 9.18 7.8825 8.373C7.8825 7.5495 8.496 6.9165 9.4365 6.9165C10.377 6.9165 10.953 7.5495 10.971 8.373C10.971 9.18 10.377 9.8325 9.399 9.8325ZM21.525 20.3685H18.609V15.168C18.609 13.9575 18.186 13.1355 17.1315 13.1355C16.326 13.1355 15.8475 13.692 15.636 14.2275C15.558 14.418 15.5385 14.688 15.5385 14.9565V20.367H12.621V13.977C12.621 12.8055 12.5835 11.826 12.5445 10.983H15.078L15.2115 12.2865H15.27C15.654 11.6745 16.5945 10.7715 18.168 10.7715C20.0865 10.7715 21.525 12.057 21.525 14.82V20.3685Z"/>
    </g>

    <g id="twitter">
        <path d="M15 0C6.71652 0 0 6.71652 0 15C0 23.2835 6.71652 30 15 30C23.2835 30 30 23.2835 30 15C30 6.71652 23.2835 0 15 0ZM22.2087 11.3069C22.2187 11.4643 22.2187 11.6283 22.2187 11.7891C22.2187 16.7042 18.4754 22.3661 11.635 22.3661C9.52567 22.3661 7.57031 21.7533 5.92299 20.6987C6.22433 20.7321 6.51228 20.7455 6.82031 20.7455C8.56138 20.7455 10.1618 20.1562 11.4375 19.1585C9.80357 19.125 8.4308 18.0536 7.96205 16.5804C8.5346 16.6641 9.05022 16.6641 9.63951 16.5134C8.79819 16.3425 8.04199 15.8855 7.49938 15.2203C6.95678 14.555 6.66123 13.7223 6.66295 12.8638V12.817C7.15513 13.0949 7.73438 13.2656 8.3404 13.2891C7.83095 12.9495 7.41314 12.4895 7.12403 11.9499C6.83493 11.4102 6.68345 10.8075 6.68304 10.1953C6.68304 9.50223 6.86384 8.86942 7.18862 8.32031C8.12244 9.46988 9.28771 10.4101 10.6087 11.0798C11.9297 11.7495 13.3768 12.1338 14.856 12.2076C14.3304 9.67969 16.2188 7.63393 18.4888 7.63393C19.5603 7.63393 20.5246 8.08259 21.2042 8.8058C22.0446 8.64844 22.8482 8.3337 23.5647 7.91183C23.2868 8.77232 22.7042 9.49888 21.9308 9.95759C22.6808 9.87723 23.404 9.66964 24.0737 9.37835C23.5681 10.1217 22.9353 10.7812 22.2087 11.3069Z"/>
    </g>

    <g id="telegram">
        <path d="M18.9057 4.76449L16.3705 16.7208C16.1791 17.5644 15.6804 17.7745 14.9717 17.3772L11.1085 14.5305L9.24472 16.3235C9.0383 16.5299 8.86608 16.7022 8.46824 16.7022L8.74607 12.7681L15.9054 6.29885C16.2169 6.02162 15.8376 5.86741 15.4218 6.14524L6.57084 11.7186L2.76043 10.5257C1.93174 10.2671 1.91674 9.69701 2.93325 9.29917L17.837 3.55716C18.5271 3.29854 19.1308 3.71018 18.9057 4.76449Z"/>
    </g>

    <g id="instagram">
        <path d="M15.6516 2.09998H5.34844C3.55687 2.09998 2.1 3.55628 2.1 5.34715V8.77799V15.6528C2.1 17.4437 3.55687 18.9 5.34844 18.9H15.6516C17.4431 18.9 18.9 17.4437 18.9 15.6528V8.77143V5.34058C18.8934 3.55628 17.4366 2.09998 15.6516 2.09998ZM16.5834 4.03516H16.9575V4.40251V6.88217L14.1159 6.88873L14.1094 4.04172L16.5834 4.03516ZM8.09812 8.77143C8.63625 8.03016 9.50906 7.53816 10.4934 7.53816C11.4778 7.53816 12.3506 8.0236 12.8887 8.77143C13.2431 9.25687 13.4466 9.85382 13.4466 10.4967C13.4466 12.1236 12.1209 13.4552 10.4869 13.4552C8.85281 13.4552 7.54031 12.1236 7.54031 10.4967C7.54031 9.85382 7.75031 9.25687 8.09812 8.77143ZM17.2594 15.6462C17.2594 16.5318 16.5375 17.2534 15.6516 17.2534H5.34844C4.4625 17.2534 3.74062 16.5318 3.74062 15.6462V8.77143H6.2475C6.03094 9.30279 5.90625 9.88662 5.90625 10.4967C5.90625 13.0288 7.96687 15.0887 10.5 15.0887C13.0331 15.0887 15.0937 13.0288 15.0937 10.4967C15.0937 9.88662 14.9691 9.30279 14.7525 8.77143H17.2594V15.6462Z"/>
    </g>

    <g id="vk">
        <path d="M18.1695 13.9938C17.8037 13.5389 17.3881 13.1311 16.9861 12.7368C16.8431 12.5965 16.6954 12.4515 16.5529 12.3073C16.1439 11.893 16.129 11.7373 16.4528 11.2666C16.6769 10.9422 16.9144 10.6173 17.1441 10.3031C17.3525 10.018 17.568 9.72327 17.7745 9.42753L17.8169 9.36672C18.2117 8.80078 18.6199 8.21558 18.8371 7.50963C18.8935 7.32338 18.9528 7.0493 18.8173 6.82012C18.682 6.59113 18.4194 6.52127 18.2337 6.48864C18.1418 6.47249 18.0505 6.47028 17.9659 6.47028L15.3809 6.46837L15.3595 6.46818C14.9687 6.46818 14.7053 6.65903 14.5543 7.0517C14.4102 7.42688 14.2519 7.82641 14.0713 8.20629C13.7119 8.96274 13.2554 9.834 12.5948 10.5607L12.5669 10.5916C12.4888 10.6784 12.4005 10.7768 12.3359 10.7768C12.326 10.7768 12.3152 10.7748 12.303 10.7709C12.1662 10.7156 12.0743 10.3724 12.0785 10.2127C12.0785 10.2105 12.0786 10.2083 12.0786 10.2061L12.0768 7.11025C12.0768 7.09952 12.076 7.08888 12.0747 7.07824C12.0089 6.57498 11.8633 6.2617 11.3129 6.15001C11.2983 6.14699 11.2833 6.14551 11.2685 6.14551H8.58055C8.14263 6.14551 7.90134 6.32994 7.67452 6.60598C7.61329 6.67977 7.48585 6.83339 7.54901 7.01974C7.61311 7.20886 7.82115 7.24931 7.8889 7.26243C8.22517 7.32875 8.41472 7.54188 8.46841 7.91429C8.56214 8.56096 8.57366 9.2512 8.50467 10.0865C8.48543 10.3187 8.44737 10.498 8.38467 10.6512C8.3701 10.6869 8.31845 10.8036 8.26578 10.8036C8.24904 10.8036 8.20062 10.7968 8.11243 10.7339C7.90393 10.5859 7.75137 10.3746 7.57352 10.1137C6.96848 9.22772 6.46069 8.25166 6.02093 7.12913C5.85783 6.7159 5.55323 6.48456 5.16285 6.47776C4.7339 6.471 4.345 6.46774 3.97409 6.46774C3.56881 6.46774 3.19309 6.47163 2.8262 6.47953C2.51212 6.48528 2.29488 6.58284 2.18056 6.76971C2.06607 6.95673 2.07351 7.2024 2.20271 7.49976C3.23698 9.8823 4.17473 11.6146 5.2434 13.1169C5.99221 14.1681 6.74328 14.8957 7.60682 15.4065C8.5166 15.9458 9.53616 16.208 10.7237 16.208C10.8583 16.208 10.9975 16.2046 11.1378 16.1978C11.8278 16.163 12.0838 15.9042 12.1162 15.208C12.1316 14.8522 12.1692 14.4791 12.338 14.1609C12.4445 13.9604 12.5438 13.9604 12.5765 13.9604C12.6394 13.9604 12.7173 13.9904 12.8011 14.0466C12.9513 14.1482 13.0801 14.2843 13.1856 14.4031C13.285 14.5161 13.3833 14.6302 13.4816 14.7443C13.6939 14.9906 13.9133 15.2453 14.1426 15.4869C14.6444 16.0159 15.1973 16.2486 15.8322 16.1981H18.2023C18.2073 16.1981 18.2124 16.1979 18.2174 16.1976C18.4536 16.1814 18.6581 16.0457 18.7786 15.8252C18.9278 15.552 18.9248 15.2035 18.7705 14.8927C18.5955 14.5413 18.3685 14.241 18.1695 13.9938Z"/>
    </g>

    <!--    <g id="bootstrap">-->
    <!--        <path d="M0 75.7821C0 81.9781 5.08028 87 11.3468 87H76.6528C82.9204 87 88 81.9774 88 75.7821V11.2182C88 5.02187 82.9197 0 76.6532 0H11.3472C5.07959 0 0 5.02255 0 11.2179V75.7818V75.7821Z" fill="#563D7C"/>-->
    <!--        <path d="M36.4919 38.4832V26.1629H47.4613C48.5063 26.1629 49.5135 26.2489 50.4836 26.4212C51.4536 26.5931 52.312 26.9003 53.0583 27.3431C53.8042 27.786 54.4013 28.4007 54.8492 29.1875C55.2968 29.9746 55.5209 30.9829 55.5209 32.2121C55.5209 34.4255 54.8492 36.0241 53.5058 37.0076C52.1628 37.9915 50.4464 38.4832 48.3568 38.4832H36.4919ZM24.7759 17.1621V69.8379H50.5956C52.9837 69.8379 55.3095 69.5429 57.5731 68.9526C59.8367 68.3623 61.8514 67.4525 63.6176 66.223C65.3834 64.9934 66.789 63.407 67.8337 61.4645C68.8787 59.5216 69.4008 57.2222 69.4008 54.5663C69.4008 51.2709 68.5923 48.4553 66.9757 46.1192C65.3587 43.7828 62.9084 42.1474 59.6249 41.2129C62.0129 40.0819 63.8166 38.6307 65.0355 36.8601C66.2541 35.0895 66.8636 32.8765 66.8636 30.2203C66.8636 27.7612 66.4532 25.6956 65.6323 24.0232C64.8114 22.3512 63.6547 21.0108 62.1621 20.0025C60.6699 18.9942 58.879 18.2686 56.7893 17.8262C54.7 17.3833 52.3866 17.1621 49.8493 17.1621H24.7759ZM36.4919 60.8371V46.3771H49.2523C51.7895 46.3771 53.8293 46.9548 55.3717 48.111C56.9138 49.2668 57.6851 51.1971 57.6851 53.9023C57.6851 55.2797 57.4486 56.4107 56.976 57.296C56.5033 58.1813 55.8691 58.8823 55.073 59.3986C54.2772 59.9151 53.3566 60.2839 52.312 60.5054C51.267 60.7263 50.1728 60.8371 49.0285 60.8371H36.4919Z" fill="white"/>-->
    <!--    </g>-->

    <g id="git">
        <path fill-rule="evenodd" clip-rule="evenodd"
              d="M15 0C6.7125 0 0 6.7125 0 15C0 21.6375 4.29375 27.2437 10.2563 29.2313C11.0063 29.3625 11.2875 28.9125 11.2875 28.5188C11.2875 28.1625 11.2688 26.9813 11.2688 25.725C7.5 26.4188 6.525 24.8062 6.225 23.9625C6.05625 23.5312 5.325 22.2 4.6875 21.8438C4.1625 21.5625 3.4125 20.8687 4.66875 20.85C5.85 20.8313 6.69375 21.9375 6.975 22.3875C8.325 24.6562 10.4812 24.0187 11.3438 23.625C11.475 22.65 11.8688 21.9937 12.3 21.6187C8.9625 21.2437 5.475 19.95 5.475 14.2125C5.475 12.5813 6.05625 11.2313 7.0125 10.1813C6.8625 9.80625 6.3375 8.26875 7.1625 6.20625C7.1625 6.20625 8.41875 5.8125 11.2875 7.74375C12.4875 7.40625 13.7625 7.2375 15.0375 7.2375C16.3125 7.2375 17.5875 7.40625 18.7875 7.74375C21.6562 5.79375 22.9125 6.20625 22.9125 6.20625C23.7375 8.26875 23.2125 9.80625 23.0625 10.1813C24.0188 11.2313 24.6 12.5625 24.6 14.2125C24.6 19.9688 21.0938 21.2437 17.7563 21.6187C18.3 22.0875 18.7688 22.9875 18.7688 24.3937C18.7688 26.4 18.75 28.0125 18.75 28.5188C18.75 28.9125 19.0312 29.3813 19.7812 29.2313C22.759 28.2259 25.3465 26.3121 27.1796 23.7592C29.0127 21.2063 29.9991 18.1429 30 15C30 6.7125 23.2875 0 15 0Z"/>
    </g>

    <g id="chain">
        <path d="M11.2867 8.71333C10.6041 8.03103 9.67846 7.64774 8.71334 7.64774C7.74821 7.64774 6.82259 8.03103 6.14 8.71333L3.56584 11.2867C2.88324 11.9693 2.49976 12.8951 2.49976 13.8604C2.49976 14.8258 2.88324 15.7516 3.56584 16.4342C4.24844 17.1168 5.17424 17.5002 6.13959 17.5002C7.10493 17.5002 8.03074 17.1168 8.71334 16.4342L10 15.1475"
              stroke="#FCFCFC" stroke-width="1.66667" stroke-linecap="round" stroke-linejoin="round" fill="#363636"/>
        <path d="M8.71338 11.2867C9.39597 11.969 10.3216 12.3523 11.2867 12.3523C12.2518 12.3523 13.1775 11.969 13.86 11.2867L16.4342 8.71334C17.1168 8.03074 17.5003 7.10493 17.5003 6.13959C17.5003 5.17424 17.1168 4.24844 16.4342 3.56584C15.7516 2.88324 14.8258 2.49976 13.8605 2.49976C12.8951 2.49976 11.9693 2.88324 11.2867 3.56584L10 4.8525"
              stroke="#FCFCFC" stroke-width="1.66667" stroke-linecap="round" stroke-linejoin="round" fill="#363636"/>

    </g>

    <g id="building">
        <path d="M2.5 1.5V10.5H5.5V8.75H6.5V10.5H9.5V1.5H2.5ZM3.5 2.5H4.5V3.5H3.5V2.5ZM5.5 2.5H6.5V3.5H5.5V2.5ZM7.5 2.5H8.5V3.5H7.5V2.5ZM3.5 4.5H4.5V5.5H3.5V4.5ZM5.5 4.5H6.5V5.5H5.5V4.5ZM7.5 4.5H8.5V5.5H7.5V4.5ZM3.5 6.5H4.5V7.5H3.5V6.5ZM5.5 6.5H6.5V7.5H5.5V6.5ZM7.5 6.5H8.5V7.5H7.5V6.5ZM3.5 8.5H4.5V9.5H3.5V8.5ZM7.5 8.5H8.5V9.5H7.5V8.5Z"/>
    </g>

    <g id="date">
        <path d="M5.33341 6.5C5.1566 6.5 4.98703 6.44732 4.86201 6.35355C4.73699 6.25979 4.66675 6.13261 4.66675 6C4.66675 5.86739 4.73699 5.74021 4.86201 5.64645C4.98703 5.55268 5.1566 5.5 5.33341 5.5C5.51023 5.5 5.67979 5.55268 5.80482 5.64645C5.92984 5.74021 6.00008 5.86739 6.00008 6C6.00008 6.13261 5.92984 6.25979 5.80482 6.35355C5.67979 6.44732 5.51023 6.5 5.33341 6.5ZM5.33341 8.5C5.1566 8.5 4.98703 8.44732 4.86201 8.35355C4.73699 8.25979 4.66675 8.13261 4.66675 8C4.66675 7.86739 4.73699 7.74021 4.86201 7.64645C4.98703 7.55268 5.1566 7.5 5.33341 7.5C5.51023 7.5 5.67979 7.55268 5.80482 7.64645C5.92984 7.74021 6.00008 7.86739 6.00008 8C6.00008 8.13261 5.92984 8.25979 5.80482 8.35355C5.67979 8.44732 5.51023 8.5 5.33341 8.5ZM7.33341 8C7.33341 8.13261 7.40365 8.25979 7.52868 8.35355C7.6537 8.44732 7.82327 8.5 8.00008 8.5C8.17689 8.5 8.34646 8.44732 8.47149 8.35355C8.59651 8.25979 8.66675 8.13261 8.66675 8C8.66675 7.86739 8.59651 7.74021 8.47149 7.64645C8.34646 7.55268 8.17689 7.5 8.00008 7.5C7.82327 7.5 7.6537 7.55268 7.52868 7.64645C7.40365 7.74021 7.33341 7.86739 7.33341 8ZM10.6667 8.5C10.4899 8.5 10.3204 8.44732 10.1953 8.35355C10.0703 8.25979 10.0001 8.13261 10.0001 8C10.0001 7.86739 10.0703 7.74021 10.1953 7.64645C10.3204 7.55268 10.4899 7.5 10.6667 7.5C10.8436 7.5 11.0131 7.55268 11.1382 7.64645C11.2632 7.74021 11.3334 7.86739 11.3334 8C11.3334 8.13261 11.2632 8.25979 11.1382 8.35355C11.0131 8.44732 10.8436 8.5 10.6667 8.5ZM7.33341 6C7.33341 6.13261 7.40365 6.25979 7.52868 6.35355C7.6537 6.44732 7.82327 6.5 8.00008 6.5C8.17689 6.5 8.34646 6.44732 8.47149 6.35355C8.59651 6.25979 8.66675 6.13261 8.66675 6C8.66675 5.86739 8.59651 5.74021 8.47149 5.64645C8.34646 5.55268 8.17689 5.5 8.00008 5.5C7.82327 5.5 7.6537 5.55268 7.52868 5.64645C7.40365 5.74021 7.33341 5.86739 7.33341 6ZM10.6667 6.5C10.4899 6.5 10.3204 6.44732 10.1953 6.35355C10.0703 6.25979 10.0001 6.13261 10.0001 6C10.0001 5.86739 10.0703 5.74021 10.1953 5.64645C10.3204 5.55268 10.4899 5.5 10.6667 5.5C10.8436 5.5 11.0131 5.55268 11.1382 5.64645C11.2632 5.74021 11.3334 5.86739 11.3334 6C11.3334 6.13261 11.2632 6.25979 11.1382 6.35355C11.0131 6.44732 10.8436 6.5 10.6667 6.5ZM5.33341 3.5C5.1566 3.5 4.98703 3.55268 4.86201 3.64645C4.73699 3.74021 4.66675 3.86739 4.66675 4C4.66675 4.13261 4.73699 4.25979 4.86201 4.35355C4.98703 4.44732 5.1566 4.5 5.33341 4.5H10.6667C10.8436 4.5 11.0131 4.44732 11.1382 4.35355C11.2632 4.25979 11.3334 4.13261 11.3334 4C11.3334 3.86739 11.2632 3.74021 11.1382 3.64645C11.0131 3.55268 10.8436 3.5 10.6667 3.5H5.33341Z"
        />
        <path fill-rule="evenodd" clip-rule="evenodd"
              d="M4 1.5C3.46957 1.5 2.96086 1.65804 2.58579 1.93934C2.21071 2.22064 2 2.60218 2 3V9C2 9.39782 2.21071 9.77936 2.58579 10.0607C2.96086 10.342 3.46957 10.5 4 10.5H12C12.5304 10.5 13.0391 10.342 13.4142 10.0607C13.7893 9.77936 14 9.39782 14 9V3C14 2.60218 13.7893 2.22064 13.4142 1.93934C13.0391 1.65804 12.5304 1.5 12 1.5H4ZM12 2.5H4C3.82319 2.5 3.65362 2.55268 3.5286 2.64645C3.40357 2.74021 3.33333 2.86739 3.33333 3V9C3.33333 9.13261 3.40357 9.25979 3.5286 9.35355C3.65362 9.44732 3.82319 9.5 4 9.5H12C12.1768 9.5 12.3464 9.44732 12.4714 9.35355C12.5964 9.25979 12.6667 9.13261 12.6667 9V3C12.6667 2.86739 12.5964 2.74021 12.4714 2.64645C12.3464 2.55268 12.1768 2.5 12 2.5Z"
        />
    </g>

    <g id="location">
        <path d="M6 6.75C5.62916 6.75 5.26665 6.64003 4.95831 6.43401C4.64996 6.22798 4.40964 5.93514 4.26773 5.59253C4.12581 5.24992 4.08868 4.87292 4.16103 4.50921C4.23338 4.14549 4.41195 3.8114 4.67418 3.54918C4.9364 3.28695 5.27049 3.10838 5.63421 3.03603C5.99792 2.96368 6.37492 3.00081 6.71753 3.14273C7.06014 3.28464 7.35298 3.52496 7.55901 3.83331C7.76503 4.14165 7.875 4.50416 7.875 4.875C7.87441 5.3721 7.67667 5.84867 7.32517 6.20017C6.97367 6.55167 6.4971 6.74941 6 6.75ZM6 3.75C5.7775 3.75 5.55999 3.81598 5.37498 3.9396C5.18998 4.06321 5.04579 4.23892 4.96064 4.44448C4.87549 4.65005 4.85321 4.87625 4.89662 5.09448C4.94003 5.31271 5.04717 5.51316 5.20451 5.6705C5.36184 5.82783 5.5623 5.93498 5.78052 5.97838C5.99875 6.02179 6.22495 5.99951 6.43052 5.91437C6.63609 5.82922 6.81179 5.68502 6.9354 5.50002C7.05902 5.31501 7.125 5.09751 7.125 4.875C7.1247 4.57672 7.00608 4.29075 6.79517 4.07983C6.58425 3.86892 6.29828 3.7503 6 3.75Z"
        />
        <path d="M6 11.25L2.8365 7.51912C2.79255 7.4631 2.74905 7.40673 2.706 7.35C2.16562 6.63817 1.87369 5.76871 1.875 4.875C1.875 3.78098 2.3096 2.73177 3.08319 1.95818C3.85678 1.1846 4.90599 0.75 6 0.75C7.09402 0.75 8.14323 1.1846 8.91682 1.95818C9.69041 2.73177 10.125 3.78098 10.125 4.875C10.1263 5.7683 9.83452 6.63737 9.29438 7.34888L9.294 7.35C9.294 7.35 9.1815 7.49775 9.16463 7.51763L6 11.25ZM3.3045 6.89813C3.30525 6.89813 3.39225 7.01362 3.41213 7.03837L6 10.0905L8.59125 7.03425C8.60775 7.01362 8.6955 6.89738 8.69588 6.897C9.13731 6.31542 9.37587 5.60514 9.375 4.875C9.375 3.97989 9.01942 3.12145 8.38649 2.48851C7.75355 1.85558 6.89511 1.5 6 1.5C5.1049 1.5 4.24645 1.85558 3.61352 2.48851C2.98058 3.12145 2.625 3.97989 2.625 4.875C2.62422 5.60559 2.86305 6.31628 3.30488 6.89813H3.3045Z"/>
    </g>

    <g id="bigbigSquare">
        <path d="M714.509 231.002L597.003 299.867" stroke="#B2B2B2"/>
        <path d="M645.644 113.497L528.138 182.361" stroke="url(#paint0_linear_15_2063)"/>
        <path d="M597.002 299.867L528.138 182.361" stroke="#B2B2B2"/>
        <path d="M714.509 231.002L645.644 113.496" stroke="#B2B2B2"/>
        <path d="M597.002 299.867L440.328 391.686" stroke="#B2B2B2"/>
        <path d="M528.138 182.361L371.464 274.18" stroke="url(#paint1_linear_15_2063)"/>
        <path d="M440.328 391.686L371.464 274.18" stroke="#B2B2B2"/>
        <path d="M597.002 299.867L528.138 182.361" stroke="url(#paint2_linear_15_2063)"/>
        <path d="M97.2832 434.864L214.789 366" stroke="#B2B2B2"/>
        <path d="M166.147 552.37L283.653 483.506" stroke="#B2B2B2"/>
        <path d="M214.789 366L283.653 483.506" stroke="#B2B2B2"/>
        <path d="M97.2832 434.864L166.148 552.37" stroke="#B2B2B2"/>
        <path d="M214.789 366L371.464 274.181" stroke="url(#paint3_linear_15_2063)"/>
        <path d="M283.654 483.505L440.328 391.686" stroke="#B2B2B2"/>
        <path d="M214.789 366L283.653 483.506" stroke="#B2B2B2"/>
        <path d="M440.328 391.686L557.834 322.822" stroke="#B2B2B2"/>
        <path d="M509.192 509.192L626.698 440.328" stroke="#B2B2B2"/>
        <path d="M557.834 322.822L626.698 440.328" stroke="#B2B2B2"/>
        <path d="M557.833 322.822L714.508 231.003" stroke="#B2B2B2"/>
        <path d="M557.833 322.822L626.698 440.328" stroke="#B2B2B2"/>
        <path d="M509.192 509.192L391.686 578.056" stroke="#B2B2B2"/>
        <path d="M440.328 391.686L322.822 460.55" stroke="#B2B2B2"/>
        <path d="M391.687 578.056L322.822 460.551" stroke="#B2B2B2"/>
        <path d="M391.687 578.056L235.012 669.876" stroke="#B2B2B2"/>
        <path d="M322.822 460.55L166.148 552.37" stroke="#B2B2B2"/>
        <path d="M235.012 669.876L166.148 552.37" stroke="url(#paint4_linear_15_2063)"/>
        <path d="M391.687 578.056L322.822 460.551" stroke="#B2B2B2"/>
        <path d="M734.729 534.879L578.054 626.698" stroke="#B2B2B2"/>
        <path d="M665.864 417.373L509.19 509.192" stroke="#B2B2B2"/>
        <path d="M578.054 626.698L509.19 509.192" stroke="#B2B2B2"/>
        <path d="M235.009 669.875L352.515 601.011" stroke="#B2B2B2"/>
        <path d="M303.874 787.381L421.38 718.517" stroke="#B2B2B2"/>
        <path d="M352.515 601.011L421.38 718.517" stroke="#B2B2B2"/>
        <path d="M235.009 669.875L303.873 787.381" stroke="#B2B2B2"/>
        <path d="M352.516 601.011L509.19 509.192" stroke="url(#paint5_linear_15_2063)"/>
        <path d="M421.38 718.517L578.054 626.697" stroke="#B2B2B2"/>
        <path d="M352.516 601.011L421.38 718.517" stroke="#B2B2B2"/>
        <path d="M578.054 626.698L695.56 557.833" stroke="#B2B2B2"/>
        <path d="M646.918 744.203L529.412 813.068" stroke="#B2B2B2"/>
        <path d="M578.054 626.698L460.548 695.562" stroke="#B2B2B2"/>
        <path d="M529.413 813.068L460.548 695.562" stroke="#B2B2B2"/>
        <path d="M529.413 813.068L372.738 904.887" stroke="#B2B2B2"/>
        <path d="M460.548 695.562L303.874 787.381" stroke="#B2B2B2"/>
        <path d="M372.738 904.887L303.874 787.381" stroke="#B2B2B2"/>
        <path d="M529.413 813.068L460.548 695.562" stroke="url(#paint6_linear_15_2063)"/>
    </g>
</svg>

