<svg width="30" height="30" viewBox="0 0 30 30" fill="none" xmlns="http://www.w3.org/2000/svg">
    <g clip-path="url(#clip0_108117_652)">
        <path d="M0 15C0 6.71573 6.71573 0 15 0C23.2843 0 30 6.71573 30 15C30 23.2843 23.2843 30 15 30C6.71573 30 0 23.2843 0 15Z"
              fill="#666666"/>
        <path d="M0 15C0 6.71573 6.71573 0 15 0C23.2843 0 30 6.71573 30 15C30 23.2843 23.2843 30 15 30C6.71573 30 0 23.2843 0 15Z"
              fill="#black"/>
        <mask id="mask0_108117_652" style="mask-type:luminance" maskUnits="userSpaceOnUse" x="3" y="6" width="20"
              height="18">
            <path d="M23 6H3V24H23V6Z" fill="white"/>
            <path d="M22.943 7.63835L19.9248 22.9136C19.6969 23.9915 19.1033 24.2598 18.2596 23.7523L13.6606 20.1154L11.4418 22.4061C11.196 22.6698 10.991 22.8898 10.5174 22.8898L10.8481 17.8638L19.3712 9.59864C19.7419 9.24445 19.2905 9.04743 18.7954 9.40238L8.25858 16.5229L3.72239 14.9988C2.73586 14.6684 2.718 13.9401 3.92812 13.4318L21.6707 6.09588C22.4922 5.76546 23.2109 6.29137 22.943 7.63835Z"
                  fill="white"/>

        </mask>
        <g mask="url(#mask0_108117_652)">
            <path d="M22.943 7.63835L19.9248 22.9136C19.6969 23.9915 19.1033 24.2598 18.2596 23.7523L13.6606 20.1154L11.4418 22.4061C11.196 22.6698 10.991 22.8898 10.5174 22.8898L10.8481 17.8638L19.3712 9.59864C19.7419 9.24445 19.2905 9.04743 18.7954 9.40238L8.25858 16.5229L3.72239 14.9988C2.73586 14.6684 2.718 13.9401 3.92812 13.4318L21.6707 6.09588C22.4922 5.76546 23.2109 6.29137 22.943 7.63835Z"
                  fill="black"/>
        </g>
    </g>
</svg>
